<svg width="32" height="32" viewBox="0 0 32 32" fill="none" xmlns="http://www.w3.org/2000/svg">
<path d="M17.9292 2.38411C17.713 2.11499 17.3197 2.07218 17.0505 2.2883C16.7814 2.50449 16.7385 2.89786 16.9547 3.16699L26.2437 14.7304C26.4602 14.9999 26.8536 15.0421 27.1224 14.8262C27.3915 14.6101 27.4344 14.2167 27.2182 13.9475L17.9292 2.38411ZM29.5588 11.456L20.8668 0.635676C20.6506 0.36655 20.2572 0.323738 19.9881 0.539863C19.7189 0.756051 19.6761 1.14943 19.8923 1.41855L28.5843 12.2388C28.8008 12.5083 29.1942 12.5505 29.4629 12.3346C29.7321 12.1184 29.7749 11.725 29.5588 11.456ZM15.6868 26.0401C15.3417 26.0401 15.0618 26.3199 15.0618 26.6651V30.6857H11.9368V21.9888C11.9368 21.6437 11.6569 21.3638 11.3118 21.3638C10.9667 21.3638 10.6868 21.6437 10.6868 21.9888V31.3107C10.6868 31.6558 10.9667 31.9357 11.3118 31.9357H15.6868C16.0319 31.9357 16.3118 31.6558 16.3118 31.3107V26.6651C16.3118 26.3199 16.0319 26.0401 15.6868 26.0401ZM15.6868 17.8494C15.3417 17.8494 15.0618 18.1293 15.0618 18.4744V24.1651C15.0618 24.5102 15.3417 24.7901 15.6868 24.7901C16.0319 24.7901 16.3118 24.5102 16.3118 24.1651V18.4744C16.3118 18.1293 16.0319 17.8494 15.6868 17.8494ZM13.5049 16.2525L14.0328 15.8286C14.3019 15.6124 14.3448 15.219 14.1286 14.9499C13.9124 14.6808 13.519 14.6379 13.2499 14.854L12.7221 15.2781C12.4529 15.4942 12.4101 15.8876 12.6263 16.1567C12.8428 16.4261 13.2362 16.4684 13.5049 16.2525Z" fill="#B354DC"/>
<path d="M28.9074 3.07787C26.1198 -0.392322 21.0289 -0.947572 17.5588 1.84005C15.8806 3.18818 14.8354 5.08955 14.5948 7.21793L13.5324 8.0713C12.8837 8.59249 12.7169 9.49412 13.0937 10.2034L7.33662 14.8279C7.0675 15.0441 7.02462 15.4375 7.24081 15.7066C7.45706 15.9758 7.85044 16.0187 8.1195 15.8024L13.8526 11.1971C14.0032 11.3846 17.3109 15.5023 17.7337 16.0286L8.19219 23.693C7.58656 24.1795 6.70262 24.0832 6.216 23.4775L4.09594 20.8381C3.60925 20.2325 3.70562 19.3486 4.31131 18.8619L6.17131 17.3682C6.44044 17.1521 6.48337 16.7587 6.26725 16.4895C6.05106 16.2203 5.65769 16.1775 5.38856 16.3936L3.52844 17.8873C2.5385 18.6827 2.28375 20.0203 2.78762 21.0875L1.95031 21.7602C1.21425 22.3514 1.09694 23.4256 1.68831 24.1618L2.4515 25.1119C3.043 25.8482 4.12075 25.9621 4.85312 25.3738L5.69044 24.7011C6.62112 25.421 7.98281 25.4647 8.97506 24.6674L18.5402 16.9842C19.1429 17.4993 20.0581 17.5442 20.717 17.0149L21.7789 16.1619C23.8771 16.3825 25.9659 15.7953 27.6697 14.4266C31.1478 11.6324 31.7018 6.55637 28.9074 3.07787ZM4.07037 24.3991C3.87344 24.5574 3.58431 24.5259 3.426 24.3289L2.66287 23.3789C2.50425 23.1814 2.53556 22.8932 2.73312 22.7346L3.51262 22.1083L4.84981 23.7729L4.07037 24.3991ZM19.9341 16.0404C19.7369 16.1987 19.4488 16.1675 19.2903 15.9701C13.8299 9.17218 14.5777 10.1037 14.245 9.68955C14.0868 9.49262 14.1176 9.20455 14.3152 9.04574L15.095 8.41937L20.7138 15.414L19.9341 16.0404ZM21.9204 14.92L15.8376 7.34774C16.2652 3.62255 19.6224 0.944428 23.354 1.35118C27.1022 1.76012 29.8052 5.12418 29.3964 8.87305C28.9897 12.5998 25.6545 15.3061 21.9204 14.92Z" fill="#B354DC"/>
</svg>
