<svg width="35" height="35" viewBox="0 0 35 35" fill="none" xmlns="http://www.w3.org/2000/svg">
<path d="M18.9711 30.8984H9.06719C8.92215 30.8984 8.78305 30.8408 8.68049 30.7383C8.57793 30.6357 8.52031 30.4966 8.52031 30.3516C8.52031 30.2065 8.57793 30.0674 8.68049 29.9649C8.78305 29.8623 8.92215 29.8047 9.06719 29.8047H18.9711C19.1161 29.8047 19.2552 29.8623 19.3578 29.9649C19.4604 30.0674 19.518 30.2065 19.518 30.3516C19.518 30.4966 19.4604 30.6357 19.3578 30.7383C19.2552 30.8408 19.1161 30.8984 18.9711 30.8984Z" fill="#CCBE27"/>
<path d="M8.88125 30.9476C8.73621 30.9476 8.59711 30.89 8.49455 30.7875C8.39199 30.6849 8.33437 30.5458 8.33437 30.4008C8.75 18.9218 14.2187 11.7687 15.9031 9.84372C18.5937 6.78122 24.9047 2.94216 29.1758 1.78825C29.3139 1.75608 29.4591 1.7788 29.5807 1.85162C29.7024 1.92445 29.791 2.04168 29.8279 2.17859C29.8648 2.3155 29.8471 2.46139 29.7785 2.58548C29.7098 2.70957 29.5957 2.80216 29.4602 2.84372C25.3586 3.93747 19.2937 7.63435 16.7289 10.5711C15.0883 12.4195 9.80547 19.3211 9.42265 30.4226C9.41704 30.5629 9.35771 30.6956 9.25692 30.7934C9.15614 30.8911 9.02163 30.9463 8.88125 30.9476Z" fill="#CCBE27"/>
<path d="M15.925 6.87424C15.8042 6.87386 15.6869 6.83348 15.5914 6.75939C15.4771 6.67075 15.4025 6.54041 15.384 6.39691C15.3656 6.25341 15.4048 6.10845 15.493 5.99377C17.2977 3.64221 21.1695 1.0008 29.3672 1.77189C29.5122 1.78567 29.6459 1.8565 29.7387 1.96881C29.8315 2.08111 29.8759 2.22568 29.8621 2.37072C29.8483 2.51576 29.7775 2.64939 29.6652 2.7422C29.5529 2.83502 29.4083 2.87942 29.2633 2.86564C21.5687 2.14377 17.9977 4.50627 16.3625 6.69377C16.3077 6.75469 16.24 6.80254 16.1643 6.83378C16.0886 6.86502 16.0068 6.87884 15.925 6.87424ZM8.09922 22.2031C8.01105 22.203 7.92422 22.1815 7.84614 22.1406C7.76806 22.0996 7.70103 22.0404 7.65078 21.968C5.18437 18.4461 6.24531 15.9524 7.26797 13.5188L7.33359 13.3656C7.36814 13.284 7.42204 13.2119 7.49064 13.1557C7.55923 13.0995 7.64047 13.0608 7.72734 13.043C7.81476 13.0247 7.90532 13.0281 7.99112 13.0529C8.07691 13.0777 8.15534 13.1231 8.21953 13.1852L9.41719 14.3555C9.84375 12.343 10.9375 7.88596 12.7914 5.92268C12.8817 5.82754 13.0032 5.76803 13.1337 5.75498C13.2642 5.74193 13.395 5.77621 13.5023 5.85158C13.7703 6.03752 15.143 7.03283 15.3016 8.03908C15.3123 8.11018 15.309 8.1827 15.2917 8.25251C15.2745 8.32232 15.2436 8.38805 15.201 8.44594C15.1583 8.50383 15.1047 8.55275 15.0431 8.58991C14.9816 8.62708 14.9133 8.65175 14.8422 8.66252C14.7711 8.67329 14.6986 8.66995 14.6288 8.6527C14.5589 8.63544 14.4932 8.60461 14.4353 8.56195C14.3774 8.51929 14.3285 8.46565 14.2914 8.40409C14.2542 8.34252 14.2295 8.27424 14.2187 8.20314C14.0091 7.73511 13.6788 7.33121 13.2617 7.03283C11.3203 9.58127 10.3086 15.4656 10.2977 15.5313C10.2808 15.6292 10.2376 15.7208 10.1726 15.796C10.1076 15.8713 10.0233 15.9274 9.92884 15.9583C9.83436 15.9892 9.73323 15.9938 9.63634 15.9716C9.53944 15.9493 9.45044 15.9011 9.3789 15.8321L8.02265 14.5141C7.12578 16.7016 6.58984 18.5445 8.53672 21.3227C8.57868 21.3815 8.60859 21.448 8.62471 21.5184C8.64083 21.5888 8.64285 21.6617 8.63065 21.7328C8.61844 21.804 8.59226 21.8721 8.55361 21.9331C8.51496 21.9941 8.46461 22.0469 8.40547 22.0883C8.31749 22.1569 8.21063 22.197 8.09922 22.2031Z" fill="#CCBE27"/>
<path d="M19.0969 18.4844H19.0203L16.2859 18.1016C16.1719 18.0848 16.066 18.0324 15.9835 17.9519C15.901 17.8713 15.8461 17.7668 15.8266 17.6531C15.8075 17.5397 15.8248 17.4231 15.8758 17.32C15.9269 17.2169 16.0092 17.1326 16.1109 17.0789C16.1383 17.0789 18.7141 15.7117 19.9391 13.8414C20.6609 12.7477 21.2406 11.7797 21.6125 11.1399H20.0703C19.951 11.1387 19.8353 11.0984 19.7409 11.0253C19.6466 10.9522 19.5788 10.8503 19.5478 10.735C19.5168 10.6197 19.5244 10.4975 19.5693 10.3869C19.6143 10.2764 19.6942 10.1836 19.7969 10.1227C21.1959 9.36817 22.536 8.50895 23.8055 7.55237C23.9097 7.39392 24.0046 7.22959 24.0898 7.06018C25.1003 5.08259 26.5637 3.37177 28.3609 2.06721C28.4779 1.98306 28.6234 1.94849 28.7658 1.97102C28.9081 1.99355 29.0358 2.07136 29.1211 2.18753C29.1628 2.24664 29.1923 2.31343 29.208 2.38404C29.2237 2.45465 29.2253 2.52767 29.2126 2.59888C29.1998 2.67009 29.1731 2.73807 29.134 2.79888C29.0948 2.85969 29.0439 2.91213 28.9844 2.95315C27.3204 4.1594 25.9686 5.74559 25.0414 7.57971C24.9341 7.7948 24.8136 8.00301 24.6805 8.20315C23.8813 8.90831 23.0064 9.52274 22.0719 10.0352H22.575C22.6699 10.0352 22.7632 10.0599 22.8456 10.1069C22.9281 10.1539 22.9969 10.2215 23.0453 10.3032C23.0933 10.3863 23.1186 10.4806 23.1186 10.5766C23.1186 10.6726 23.0933 10.7669 23.0453 10.85C23.0125 10.9157 22.1867 12.425 20.8578 14.4375C20.0708 15.5389 19.0861 16.4846 17.9539 17.2266L19.157 17.3961C19.3021 17.4063 19.4371 17.4736 19.5325 17.5834C19.6279 17.6931 19.6758 17.8362 19.6656 17.9813C19.6555 18.1263 19.5881 18.2614 19.4784 18.3568C19.3686 18.4521 19.2255 18.5 19.0805 18.4899L19.0969 18.4844ZM12.0312 24.0024C11.2724 23.9941 10.5154 23.9264 9.76719 23.8C9.69537 23.7889 9.62645 23.7637 9.56436 23.726C9.50227 23.6882 9.44823 23.6386 9.40531 23.5799C9.3624 23.5213 9.33147 23.4547 9.31427 23.3841C9.29707 23.3135 9.29394 23.2402 9.30508 23.1684C9.31621 23.0966 9.34138 23.0276 9.37914 22.9656C9.41691 22.9035 9.46654 22.8494 9.52519 22.8065C9.58384 22.7636 9.65037 22.7327 9.72098 22.7155C9.79159 22.6983 9.8649 22.6951 9.93672 22.7063C12.6711 23.1383 14.6945 22.9578 16.8219 20.7649C17.1187 20.4623 17.3998 20.1447 17.6641 19.8133C17.7543 19.7006 17.8854 19.6282 18.0288 19.6118C18.1723 19.5954 18.3164 19.6364 18.4297 19.7258C18.4867 19.7701 18.5343 19.8253 18.5699 19.8882C18.6054 19.951 18.6282 20.0203 18.6368 20.092C18.6455 20.1637 18.6398 20.2364 18.6202 20.3059C18.6006 20.3754 18.5675 20.4403 18.5227 20.4969C18.2602 20.825 17.9758 21.1696 17.6094 21.525C16.9155 22.3186 16.057 22.9513 15.0936 23.3792C14.1303 23.807 13.0852 24.0197 12.0312 24.0024ZM26.9008 30.8985H21.5906C21.4456 30.8985 21.3065 30.8408 21.2039 30.7383C21.1014 30.6357 21.0437 30.4966 21.0437 30.3516C21.0437 30.2065 21.1014 30.0674 21.2039 29.9649C21.3065 29.8623 21.4456 29.8047 21.5906 29.8047H26.9008C27.0458 29.8047 27.1849 29.8623 27.2875 29.9649C27.39 30.0674 27.4477 30.2065 27.4477 30.3516C27.4477 30.4966 27.39 30.6357 27.2875 30.7383C27.1849 30.8408 27.0458 30.8985 26.9008 30.8985ZM22.6789 33.3594H5.68203C5.53699 33.3594 5.39789 33.3018 5.29533 33.1992C5.19277 33.0967 5.13515 32.9576 5.13515 32.8125C5.13515 32.6675 5.19277 32.5284 5.29533 32.4258C5.39789 32.3233 5.53699 32.2657 5.68203 32.2657H22.6789C22.8239 32.2657 22.963 32.3233 23.0656 32.4258C23.1682 32.5284 23.2258 32.6675 23.2258 32.8125C23.2258 32.9576 23.1682 33.0967 23.0656 33.1992C22.963 33.3018 22.8239 33.3594 22.6789 33.3594Z" fill="#CCBE27"/>
</svg>
